<?xml version="1.0" encoding="UTF-8"?>
<svg width="512px" height="512px" viewBox="0 0 512 512" version="1.1" xmlns="http://www.w3.org/2000/svg" xmlns:xlink="http://www.w3.org/1999/xlink">
    <!-- Generator: Sketch 48.2 (47327) - http://www.bohemiancoding.com/sketch -->
    <title>icon</title>
    <desc>Created with Sketch.</desc>
    <defs></defs>
    <g id="Page-1" stroke="none" stroke-width="1" fill="none" fill-rule="evenodd">
        <g id="icon">
            <g>
                <circle id="Oval-Copy" fill="#441D4E" cx="256" cy="256" r="256"></circle>
                <path d="M406.90788,193.766923 C382.265755,182.926679 353.500245,194.098266 342.660001,218.72403 C342.2223,219.713969 341.882776,220.720271 341.514617,221.722482 L255.034009,233.863556 L183.578389,164.42054 C176.31338,157.323248 157.664069,148.270621 147.445604,145.28035 C137.231231,142.29826 108.739795,137.639 116.004805,144.736292 L213.174302,239.741832 L78.2889349,258.68158 C68.2381874,260.101038 93.947975,273.236142 103.945544,276.88501 C113.943113,280.533877 134.322773,284.309554 144.381701,282.902368 L243.400177,269.296838 L301.422074,326.026088 C298.370443,331.253949 296.222848,337.119953 295.294268,343.472746 C291.354964,370.086569 309.799743,394.875958 336.413566,398.762084 C363.027389,402.701387 387.7636,384.301606 391.702904,357.691874 C395.642207,331.033054 377.242426,306.292752 350.583606,302.353448 C342.615004,301.175339 334.82639,302.034377 327.700463,304.488772 L285.529867,263.504466 L341.751875,255.781303 C346.239327,267.509221 355.218322,277.51088 367.617107,282.971909 C392.251052,293.812154 421.004289,282.636475 431.856806,258.014803 C442.69705,233.380858 431.533644,204.627621 406.90788,193.766923 Z M314.557178,346.307572 C316.909307,330.309007 331.803394,319.26423 347.752871,321.616358 C363.747345,323.968487 374.796213,338.862574 372.444084,354.80796 C370.087865,370.806525 355.197869,381.851302 339.248392,379.503264 C323.253918,377.147045 312.20505,362.306137 314.557178,346.307572 Z M262.793988,257.417567 C260.916376,261.692305 255.933954,263.631277 251.651035,261.745483 C247.388569,259.867871 245.449597,254.885449 247.33539,250.610711 C249.213002,246.348245 254.195424,244.409273 258.470162,246.282795 C262.732628,248.172679 264.6716,253.167373 262.793988,257.417567 Z M414.017445,250.152557 C407.501026,264.923925 390.246629,271.628514 375.475262,265.132548 C360.691623,258.616129 353.991124,241.361733 360.495271,226.582184 C366.999418,211.798545 384.261996,205.098047 399.037454,211.610375 C413.821093,218.118612 420.521591,235.38119 414.017445,250.152557 Z" id="Shape" fill="#FFFFFF" fill-rule="nonzero"></path>
            </g>
        </g>
    </g>
</svg>